<?xml version="1.0" encoding="utf-8"?>
<!-- Generator: Adobe Illustrator 18.1.1, SVG Export Plug-In . SVG Version: 6.00 Build 0)  -->
<svg version="1.1" id="Layer_1" xmlns="http://www.w3.org/2000/svg" xmlns:xlink="http://www.w3.org/1999/xlink" x="0px" y="0px"
	 viewBox="0 0 50 50" enable-background="new 0 0 50 50" xml:space="preserve">
<circle fill="#DB4B39" cx="99.4" cy="28.2" r="25"/>
<g>
	<polygon id="Plus_2_" fill="#FFFFFF" points="41,30 39,30 39,29 37,29 37,30 34,30 34,32 37,32 37,34 39,34 39,32 41,32 	"/>
	<path id="g_2_" fill="#FFFFFF" d="M31.7,33.1c-0.6-0.4-1.6-1.4-1.6-1.9c0-0.7,0.2-1,1.2-1.8c1-0.8,1.7-1.8,1.7-3.1
		c0-1.6-0.7-3.4-2-3.4h2l1.4-1c0,0-4.6,0-6.2,0c-2.8,0-5.4,1.9-5.4,4.4s1.9,4.4,4.7,4.4c0.2,0,0.4,0,0.6-0.1
		c-0.2,0.3-0.3,0.7-0.3,1.1c0,0.7,0.4,1.2,0.8,1.7c-0.4,0-0.7,0-1.1,0c-3.4,0-6.1,2.2-6.1,4.4s2.9,3.6,6.3,3.6
		c3.9,0,6.1-2.2,6.1-4.4C33.9,35.4,33.4,34.3,31.7,33.1z M28.4,30.1c-1.6,0-3.1-1.8-3.4-3.9s0.8-3.7,2.4-3.6c1.6,0,3.1,1.7,3.4,3.8
		C31.1,28.4,30,30.1,28.4,30.1z M27.8,40.6c-2.4,0-4.1-1.5-4.1-3.3s2.1-3.2,4.5-3.2c0.6,0,1.1,0.1,1.5,0.2c1.3,0.9,2.2,1.4,2.5,2.4
		c0,0.2,0.1,0.4,0.1,0.6C32.3,39.2,31.1,40.6,27.8,40.6z"/>
</g>
<g>
	<circle fill="#DC4E41" cx="25" cy="25" r="25"/>
	<g>
		<path fill="#FFFFFF" d="M12.4,24.6c0.1-4.1,3.9-7.8,8.1-7.6c2-0.1,3.9,0.8,5.4,2c-0.7,0.7-1.3,1.4-2.1,2.1
			c-1.8-1.3-4.5-1.6-6.3-0.2c-2.6,1.8-2.8,6.1-0.2,8c2.5,2.2,7.2,1.1,7.8-2.3c-2.2,0-1.7,0-4.7,0c0-0.9,0-1.9,0-2.8
			c0.4,0,7.5,0,7.8,0c0.2,2.1-0.1,4.4-1.5,6.2c-2,2.8-6.1,3.6-9.3,2.4C14.4,31.3,12.1,28,12.4,24.6z"/>
		<polygon fill="#FFFFFF" points="37.7,23.8 35.3,23.8 35.3,21.5 33,21.5 33,23.8 30.7,23.8 30.7,26.2 33,26.2 33,28.5 35.3,28.5 
			35.3,26.2 37.7,26.2 		"/>
	</g>
</g>
</svg>
