<?xml version="1.0" encoding="utf-8"?>
<!-- Generator: Adobe Illustrator 16.0.0, SVG Export Plug-In . SVG Version: 6.00 Build 0)  -->
<!DOCTYPE svg PUBLIC "-//W3C//DTD SVG 1.1//EN" "http://www.w3.org/Graphics/SVG/1.1/DTD/svg11.dtd">
<svg version="1.1" id="Calque_1" xmlns="http://www.w3.org/2000/svg" xmlns:xlink="http://www.w3.org/1999/xlink" x="0px" y="0px"
	 width="50px" height="50px" viewBox="0 0 50 50" enable-background="new 0 0 50 50" xml:space="preserve">
<circle fill="#8B7256" cx="24.75" cy="24.875" r="24.084"/>
<g id="XMLID_13_">
	<path id="XMLID_17_" fill="#FFFFFF" d="M29.129,14.042h-8.758c-3.559,0-6.454,2.896-6.454,6.454v8.757
		c0,3.56,2.896,6.456,6.454,6.456h8.758c3.56,0,6.454-2.896,6.454-6.456v-8.757C35.583,16.938,32.688,14.042,29.129,14.042z
		 M33.403,29.252c0,2.362-1.914,4.276-4.274,4.276h-8.758c-2.36,0-4.275-1.915-4.275-4.276v-8.757c0-2.36,1.915-4.274,4.275-4.274
		h8.758c2.36,0,4.274,1.914,4.274,4.274V29.252L33.403,29.252z"/>
	<path id="XMLID_81_" fill="#FFFFFF" d="M24.75,19.271c-3.089,0-5.604,2.514-5.604,5.604c0,3.09,2.515,5.604,5.604,5.604
		c3.09,0,5.604-2.514,5.604-5.604S27.84,19.271,24.75,19.271z M24.75,28.299c-1.892,0-3.424-1.533-3.424-3.425
		c0-1.891,1.533-3.424,3.424-3.424s3.424,1.533,3.424,3.424C28.174,26.766,26.642,28.299,24.75,28.299z"/>
	<circle id="XMLID_83_" fill="#FFFFFF" cx="30.364" cy="19.313" r="1.343"/>
</g>
</svg>
