<?xml version="1.0" encoding="utf-8"?>
<!-- Generator: Adobe Illustrator 16.0.0, SVG Export Plug-In . SVG Version: 6.00 Build 0)  -->
<!DOCTYPE svg PUBLIC "-//W3C//DTD SVG 1.1//EN" "http://www.w3.org/Graphics/SVG/1.1/DTD/svg11.dtd">
<svg version="1.1" id="Calque_1" xmlns="http://www.w3.org/2000/svg" xmlns:xlink="http://www.w3.org/1999/xlink" x="0px" y="0px"
	 width="50px" height="50px" viewBox="0 0 50 50" enable-background="new 0 0 50 50" xml:space="preserve">
<circle fill="#1486C8" cx="25" cy="25" r="24.084"/>
<g>
	<path id="LinkedIn" fill="#FFFFFF" d="M35.099,25.392v7.467h-4.328v-6.967c0-1.75-0.627-2.944-2.194-2.944
		c-1.194,0-1.906,0.805-2.221,1.584c-0.113,0.276-0.142,0.666-0.142,1.055v7.272h-4.332c0,0,0.059-11.801,0-13.022h4.331v1.846
		c-0.01,0.014-0.021,0.028-0.03,0.042h0.03v-0.042c0.574-0.886,1.603-2.152,3.901-2.152C32.963,19.529,35.099,21.391,35.099,25.392z
		 M17.353,13.559c-1.481,0-2.451,0.971-2.451,2.249c0,1.25,0.941,2.252,2.394,2.252h0.029c1.51,0,2.448-1.002,2.448-2.252
		C19.744,14.529,18.834,13.559,17.353,13.559z M15.159,32.858h4.328V19.836h-4.328V32.858z"/>
</g>
</svg>
