<?xml version="1.0" encoding="utf-8"?>
<!-- Generator: Adobe Illustrator 16.0.0, SVG Export Plug-In . SVG Version: 6.00 Build 0)  -->
<!DOCTYPE svg PUBLIC "-//W3C//DTD SVG 1.1//EN" "http://www.w3.org/Graphics/SVG/1.1/DTD/svg11.dtd">
<svg version="1.1" id="Calque_1" xmlns="http://www.w3.org/2000/svg" xmlns:xlink="http://www.w3.org/1999/xlink" x="0px" y="0px"
	 width="50px" height="50px" viewBox="0 0 50 50" enable-background="new 0 0 50 50" xml:space="preserve">
<circle fill="#68C7EC" cx="25" cy="25.01" r="24.084"/>
<g>
	<g>
		<path fill="#FFFFFF" d="M36.483,17.889c-0.846,0.375-1.752,0.629-2.706,0.742c0.974-0.583,1.719-1.507,2.072-2.604
			c-0.914,0.539-1.921,0.931-2.994,1.144c-0.859-0.917-2.082-1.489-3.438-1.489c-2.603,0-4.713,2.11-4.713,4.71
			c0,0.369,0.042,0.729,0.122,1.073c-3.914-0.196-7.387-2.072-9.71-4.923c-0.405,0.695-0.638,1.504-0.638,2.368
			c0,1.635,0.833,3.077,2.096,3.921c-0.772-0.026-1.498-0.239-2.134-0.592V22.3c0,2.282,1.625,4.186,3.779,4.62
			c-0.396,0.106-0.812,0.165-1.242,0.165c-0.304,0-0.598-0.03-0.887-0.087c0.6,1.873,2.34,3.235,4.4,3.272
			c-1.611,1.263-3.644,2.014-5.852,2.014c-0.38,0-0.755-0.023-1.123-0.064c2.085,1.339,4.561,2.12,7.222,2.12
			c8.667,0,13.405-7.179,13.405-13.405l-0.017-0.61C35.053,19.663,35.854,18.834,36.483,17.889z"/>
	</g>
</g>
</svg>
