<?xml version="1.0" encoding="utf-8"?>
<!-- Generator: Adobe Illustrator 16.0.0, SVG Export Plug-In . SVG Version: 6.00 Build 0)  -->
<!DOCTYPE svg PUBLIC "-//W3C//DTD SVG 1.1//EN" "http://www.w3.org/Graphics/SVG/1.1/DTD/svg11.dtd">
<svg version="1.1" id="Calque_1" xmlns="http://www.w3.org/2000/svg" xmlns:xlink="http://www.w3.org/1999/xlink" x="0px" y="0px"
	 width="50px" height="50px" viewBox="0 0 50 50" enable-background="new 0 0 50 50" xml:space="preserve">
<circle fill="#8BCFDD" cx="25" cy="25" r="24.084"/>
<g>
	<path id="Vimeo" fill="#FFFFFF" d="M32.664,16.677c-3.011-0.098-5.048,1.592-6.116,5.069c0.55-0.227,1.083-0.341,1.604-0.341
		c1.098,0,1.583,0.616,1.454,1.853c-0.064,0.748-0.549,1.836-1.454,3.266c-0.909,1.431-1.587,2.146-2.038,2.146
		c-0.585,0-1.118-1.105-1.604-3.314c-0.163-0.65-0.455-2.307-0.873-4.973c-0.392-2.47-1.426-3.624-3.108-3.462
		c-0.711,0.066-1.777,0.718-3.2,1.95c-1.038,0.943-2.09,1.887-3.159,2.828l1.019,1.314c0.972-0.683,1.54-1.022,1.698-1.022
		c0.745,0,1.441,1.17,2.089,3.507c0.58,2.148,1.166,4.292,1.749,6.437c0.869,2.34,1.94,3.51,3.2,3.51
		c2.038,0,4.533-1.917,7.476-5.752c2.847-3.671,4.316-6.563,4.416-8.678C35.949,18.188,34.897,16.741,32.664,16.677z"/>
</g>
</svg>
